# xmcd CD database file
#
# Track frame offsets:
#	183
#	14470
#	33158
#	50683
#	65295
#	81733
#	100220
#	119645
#	136533
#	153983
#
# Disc length: 2181 seconds
#
# Revision: 0
# Processed by: cddbd v1.5.2PL0 Copyright (c) Steve Scherf et al.
# Submitted via: CDex 1.70beta2
#
DISCID=8108830a
DTITLE=Ai,Ai,Ai - Això brama
DYEAR=1992
DGENRE=Salsa
TTITLE0=Va endavant
TTITLE1=En un trosset de mar
TTITLE2=La novel·la
TTITLE3=Desitjos
TTITLE4=Paraules d'amor
TTITLE5=Això brama
TTITLE6=Ai la vida
TTITLE7=Sota la palmera
TTITLE8=Quan es faci fosc
TTITLE9=La curva del morrot
EXTD=YEAR: 1992
EXTT0=
EXTT1=
EXTT2=
EXTT3=
EXTT4=
EXTT5=
EXTT6=
EXTT7=
EXTT8=
EXTT9=
PLAYORDER=
